# xmcd
#
# Track frame offsets: 
#        150
#        22090
#        41344
#        53586
#        68728
#        85239
#        99668
#        114347
#        125017
#        140928
#        155074
#        175714
#        193031
#        210643
#        229008
#        256007
#
# Disc length: 3698 seconds
#
# Revision: 0
# Processed by: cddbd v1.5.2PL0 Copyright (c) Steve Scherf et al.
# Submitted via: ExactAudioCopyFreeDBPlugin 1.0
#
DISCID=dc0e7010
DTITLE=MIRELA PETREAN - Cu ce m-am ales in viata
DYEAR=2007
DGENRE=Musical
TTITLE0=La multi ani, cu drag iti spun
TTITLE1=Cu ce m-am ales in viata
TTITLE2=Ioane
TTITLE3=Fetele mele
TTITLE4=Am o viata cum n-au multi
TTITLE5=Palinca si palincuta
TTITLE6=Soacra cu nora frumoasa
TTITLE7=Unde-s eu e veselie
TTITLE8=Ce-o avea lumea cu mine
TTITLE9=Sa joace mireasa
TTITLE10=Cantati lautari
TTITLE11=Noi, muzicantii
TTITLE12=Am stat multi ani langa tine
TTITLE13=Vindeca-m-as, vindeca
TTITLE14=Asta e casa in care am trait
TTITLE15=Instrumental - Hora Staccato si Hora Martisorului (colaj)
EXTD=
EXTT0=
EXTT1=
EXTT2=
EXTT3=
EXTT4=
EXTT5=
EXTT6=
EXTT7=
EXTT8=
EXTT9=
EXTT10=
EXTT11=
EXTT12=
EXTT13=
EXTT14=
EXTT15=
PLAYORDER=
